:version 1.10
:name ASF
:units
  mass 1
  length 1
  angle deg
:documentation
  ASF file generated by Kaydara
:root
  axis xyz
  order  tx ty tz rx ry rz
  position 0 0 0
  orientation 0 0 0
:bonedata
  begin
    id 1
    name RightUpLegDummy
    direction -1 2.30186e-007 8.31532e-007
    length 4.04083
    axis 0 0 0 xyz
  end
  begin
    id 2
    name RightUpLeg
    direction -0.000919234 -0.999985 0.00544864
    length 17.4221
    axis -3.80308 -0.00076134 -0.0523649 xyz
    dof rx ry rz
  end
  begin
    id 3
    name RightLeg
    direction -0.000919271 -0.999984 -0.00555045
    length 17.1239
    axis 4.00314 0.0181274 -0.183583 xyz
    dof rx ry rz
  end
  begin
    id 4
    name RightFoot
    direction -2.57843e-005 -4.04509e-007 1
    length 6.72091
    axis 8.18909e-005 -0.122003 -0.403008 xyz
    dof rx ry rz
  end
  begin
    id 5
    name RightToes
    direction 0.00116825 -0.014069 0.9999
    length 3.85082
    axis 0.000514414 0.540638 -0.356797 xyz
    dof rx ry rz
  end
  begin
    id 6
    name SpineDummy
    direction 0.0168869 0.966876 -0.254689
    length 6.99894
    axis 0 0 0 xyz
  end
  begin
    id 7
    name Spine
    direction -0.0132008 0.999903 0.00446247
    length 11.1999
    axis -0.00148109 0.00725429 0.756411 xyz
    dof rx ry rz
  end
  begin
    id 8
    name Spine1
    direction 0 0 0
    length 0
    axis -0.000934958 0.0245693 1.46543 xyz
    dof rx ry rz
  end
  begin
    id 9
    name HEadDummy
    direction -0.0255732 0.999672 0.00128215
    length 3.43865
    axis -0.000934958 0.0245693 1.46543 xyz
  end
  begin
    id 10
    name HEad
    direction -0.0472656 0.980052 0.19304
    length 5.12695
    axis -0.000934954 0.0245693 1.46543 xyz
    dof rx ry rz
  end
  begin
    id 11
    name LeftShoulder1Dummy
    direction 0.953098 0.301717 -0.023914
    length 3.68488
    axis -0.000934958 0.0245693 1.46543 xyz
  end
  begin
    id 12
    name LeftShoulder1
    direction 0.962466 0.271167 0.0112566
    length 3.13809
    axis -0.000934958 0.0245693 1.46543 xyz
    dof rx ry rz
  end
  begin
    id 13
    name LeftArm
    direction 0.999943 0.00455037 -0.00961766
    length 11.3419
    axis -23.1648 0.685459 1.22814 xyz
    dof rx ry rz
  end
  begin
    id 14
    name LeftForeArm
    direction 0.999332 0.0131969 0.0340885
    length 8.70632
    axis -9.90633 0.618216 0.0826942 xyz
    dof rx ry rz
  end
  begin
    id 15
    name LeftHand
    direction 0.994373 -0.0366703 0.0993905
    length 5.32135
    axis 0.00675269 0.680415 0.445699 xyz
    dof rx ry rz
  end
  begin
    id 16
    name RightShoulderDummy
    direction -0.967298 0.252589 -0.0230903
    length 3.68488
    axis -0.000934958 0.0245693 1.46543 xyz
  end
  begin
    id 17
    name RightShoulder
    direction -0.975062 0.221602 0.0120823
    length 3.13809
    axis 0.216257 0.0246515 1.45863 xyz
    dof rx ry rz
  end
  begin
    id 18
    name RightArm
    direction -0.99886 -0.00851186 -0.0469687
    length 10.3947
    axis -23.196 0.23503 -0.532632 xyz
    dof rx ry rz
  end
  begin
    id 19
    name RightForeArm
    direction -0.99909 0.00114866 0.0426317
    length 8.68355
    axis -9.91764 -0.134943 0.610517 xyz
    dof rx ry rz
  end
  begin
    id 20
    name RightHand
    direction -0.992888 -0.0489538 0.10852
    length 5.28593
    axis -0.00275396 -0.197403 0.246414 xyz
    dof rx ry rz
  end
  begin
    id 21
    name LeftUpLegDummy
    direction 1 -2.30186e-007 -8.31532e-007
    length 4.04083
    axis 0 0 0 xyz
  end
  begin
    id 22
    name LeftUpLeg
    direction -0.000920097 -1 2.79241e-006
    length 17.4221
    axis -3.48782 0.00143434 -0.0532288 xyz
    dof rx ry rz
  end
  begin
    id 23
    name LeftLeg
    direction -0.000920097 -1 2.7912e-006
    length 17.1239
    axis 3.68162 -0.00806512 -0.0529896 xyz
    dof rx ry rz
  end
  begin
    id 24
    name LeftFoot
    direction -2.57845e-005 -3.987e-007 1
    length 6.72091
    axis 3.02372e-005 -0.00147829 -0.214229 xyz
    dof rx ry rz
  end
  begin
    id 25
    name LeftToes
    direction 0.00813577 -0.00488255 0.999955
    length 3.85048
    axis 3.89895e-005 -0.0014783 -0.214229 xyz
    dof rx ry rz
  end
:hierarchy
  begin
    root RightUpLegDummy SpineDummy LeftUpLegDummy
    RightUpLegDummy RightUpLeg
    RightUpLeg RightLeg
    RightLeg RightFoot
    RightFoot RightToes
    SpineDummy Spine
    Spine Spine1
    Spine1 HEadDummy LeftShoulder1Dummy RightShoulderDummy
    HEadDummy HEad
    LeftShoulder1Dummy LeftShoulder1
    LeftShoulder1 LeftArm
    LeftArm LeftForeArm
    LeftForeArm LeftHand
    RightShoulderDummy RightShoulder
    RightShoulder RightArm
    RightArm RightForeArm
    RightForeArm RightHand
    LeftUpLegDummy LeftUpLeg
    LeftUpLeg LeftLeg
    LeftLeg LeftFoot
    LeftFoot LeftToes
  end

:SAMPLES-PER-SECOND 30
:FULLY-SPECIFIED
:DEGREES
68
root  -35.2605 34.7309 8.78137 -170.082 78.9648 179.745
RightUpLeg  -7.38717 -15.3732 -1.1832
RightLeg  5.21785 -2.55099 -0.067082
RightFoot  4.15189 0.0294314 -0.0360211
RightToes  -24.6805 -0.104743 -0.214028
Spine  -2.14422 -0.333618 0.350858
Spine1  -4.36487 -0.5552 1.25975
HEad  -64.5015 -4.9614 5.793
LeftShoulder1  -1.94126e-019 -3.10601e-018 -2.51263e-017
LeftArm  -16.0397 22.7757 -79.5231
LeftForeArm  31.5173 -17.6241 -3.02439
LeftHand  -0.405514 -0.528542 8.0599
RightShoulder  -4.96962e-017 0 -2.36833e-017
RightArm  -24.1052 -24.2321 74.7204
RightForeArm  51.7204 17.3041 1.23552
RightHand  -0.340513 -0.904529 -8.76143
LeftUpLeg  -6.81536 1.25444 1.57617
LeftLeg  4.77195 13.7021 0.257599
LeftFoot  4.77278 0.000311306 1.28406
LeftToes  -20.8298 1.83942e-006 5.51297e-008
69
root  -35.2299 34.7163 8.76858 -170.463 79.2019 179.545
RightUpLeg  -7.30503 -15.2534 -1.30849
RightLeg  5.48584 -2.44716 -0.075746
RightFoot  3.96558 0.0284847 -0.0224922
RightToes  -24.5747 -0.104559 -0.214014
Spine  -2.09582 -0.287481 0.355152
Spine1  -4.27061 -0.473996 1.26071
HEad  -64.6012 -5.12922 5.75319
LeftShoulder1  -1.94126e-019 -3.10601e-018 -2.51263e-017
LeftArm  -15.6667 23.2505 -79.8809
LeftForeArm  31.0237 -18.3293 -3.1019
LeftHand  -0.403864 -0.562618 7.98442
RightShoulder  -4.96962e-017 0 -2.36833e-017
RightArm  -24.547 -24.3748 74.9396
RightForeArm  52.2968 16.7214 1.14671
RightHand  -0.353374 -0.774015 -8.85221
LeftUpLeg  -6.69534 1.22598 1.51044
LeftLeg  5.10053 13.9546 0.341493
LeftFoot  4.55523 0.00120353 1.24935
LeftToes  -20.6526 1.83942e-006 5.51297e-008
70
root  -35.2132 34.6968 8.76569 -170.411 79.4199 179.618
RightUpLeg  -7.42621 -15.2612 -1.31792
RightLeg  5.76199 -2.22914 -0.07965
RightFoot  3.81285 0.0272257 -0.00450076
RightToes  -24.5681 -0.10438 -0.213999
Spine  -2.10081 -0.271892 0.377818
Spine1  -4.28278 -0.452004 1.2974
HEad  -65.0332 -5.03208 5.4956
LeftShoulder1  -1.94126e-019 -3.10601e-018 -2.51263e-017
LeftArm  -15.5624 23.7463 -80.3634
LeftForeArm  30.9425 -18.9106 -3.1718
LeftHand  -0.406596 -0.686418 7.88458
RightShoulder  -4.96962e-017 0 -2.36833e-017
RightArm  -24.9637 -24.3657 75.1851
RightForeArm  53.039 15.7333 1.12749
RightHand  -0.345809 -0.920073 -8.92854
LeftUpLeg  -6.7972 1.47792 1.50684
LeftLeg  5.48035 13.8972 0.431356
LeftFoot  4.32926 0.00391562 1.18511
LeftToes  -20.6431 1.83942e-006 5.51297e-008
71
root  -35.2086 34.6792 8.77283 -170.469 79.6497 179.556
RightUpLeg  -7.59269 -15.1301 -1.33299
RightLeg  6.04038 -2.13293 -0.0865307
RightFoot  3.6676 0.0265519 0.00512703
RightToes  -24.5828 -0.104207 -0.213983
Spine  -2.09699 -0.24825 0.393807
Spine1  -4.27748 -0.416535 1.32187
HEad  -65.9112 -4.7431 5.22264
LeftShoulder1  -1.94126e-019 -3.10601e-018 -2.51263e-017
LeftArm  -15.5762 24.0583 -80.9212
LeftForeArm  30.9276 -19.1084 -3.18536
LeftHand  -0.403541 -0.764473 7.73337
RightShoulder  -4.96962e-017 0 -2.36833e-017
RightArm  -26.3096 -24.2378 75.5094
RightForeArm  54.6656 14.5159 1.21104
RightHand  -0.346267 -0.966863 -9.0301
LeftUpLeg  -6.961 1.68184 1.48818
LeftLeg  5.90169 13.9091 0.53306
LeftFoot  4.11712 0.0059383 1.13034
LeftToes  -20.6163 1.83942e-006 5.51297e-008
72
root  -35.1975 34.6581 8.7604 -170.25 79.831 179.719
RightUpLeg  -7.79638 -15.2691 -1.32365
RightLeg  6.31513 -1.79741 -0.0813847
RightFoot  3.54615 0.0250455 0.0266544
RightToes  -24.7252 -0.10404 -0.213964
Spine  -2.08903 -0.232372 0.422566
Spine1  -4.26239 -0.399926 1.37356
HEad  -67.0433 -4.33986 5.02531
LeftShoulder1  -1.94126e-019 -3.10601e-018 -2.51263e-017
LeftArm  -15.701 24.3045 -81.5305
LeftForeArm  30.804 -19.2669 -3.19927
LeftHand  -0.392546 -0.759553 7.53096
RightShoulder  -4.96962e-017 0 -2.36833e-017
RightArm  -27.8835 -24.1803 75.8041
RightForeArm  56.4974 13.4517 1.32597
RightHand  -0.350839 -0.9595 -9.1363
LeftUpLeg  -7.15959 1.72981 1.47757
LeftLeg  6.30615 14.063 0.637238
LeftFoot  3.85928 0.00796094 1.07431
LeftToes  -20.6522 1.83942e-006 5.51297e-008
73
root  -35.2028 34.6434 8.76572 -170.094 79.9148 179.852
RightUpLeg  -7.96798 -15.1694 -1.29124
RightLeg  6.57236 -1.81563 -0.0903777
RightFoot  3.41876 0.024926 0.0283615
RightToes  -24.7394 -0.103878 -0.213944
Spine  -2.08432 -0.231055 0.434542
Spine1  -4.2531 -0.411799 1.39872
HEad  -68.0557 -3.99065 4.94244
LeftShoulder1  -1.94126e-019 -3.10601e-018 -2.51263e-017
LeftArm  -15.6974 24.4936 -82.0163
LeftForeArm  30.6444 -19.4639 -3.21784
LeftHand  -0.391287 -0.823003 7.43578
RightShoulder  -4.96962e-017 0 -2.36833e-017
RightArm  -28.9092 -24.3028 76.1309
RightForeArm  57.6442 12.7897 1.39882
RightHand  -0.352702 -0.988696 -9.24318
LeftUpLeg  -7.31895 1.73565 1.50189
LeftLeg  6.60234 14.1278 0.712534
LeftFoot  3.69367 0.00881598 1.03515
LeftToes  -20.6264 1.83942e-006 5.51297e-008
74
root  -35.2047 34.6349 8.77281 -169.963 79.9575 179.957
RightUpLeg  -8.06689 -15.1889 -1.25454
RightLeg  6.68506 -1.75326 -0.0906914
RightFoot  3.36073 0.0249079 0.0286205
RightToes  -24.7257 -0.103723 -0.213921
Spine  -2.10362 -0.244681 0.434539
Spine1  -4.29064 -0.451623 1.40499
HEad  -68.613 -3.66793 4.97835
LeftShoulder1  -1.94126e-019 -3.10601e-018 -2.51263e-017
LeftArm  -15.4964 24.7754 -82.3407
LeftForeArm  30.4372 -19.9741 -3.27331
LeftHand  -0.380031 -0.931665 7.10968
RightShoulder  -4.96962e-017 0 -2.36833e-017
RightArm  -29.2183 -24.5527 76.4415
RightForeArm  58.2132 12.506 1.42716
RightHand  -0.354012 -0.976211 -9.17801
LeftUpLeg  -7.42705 1.76796 1.5239
LeftLeg  6.77357 14.1533 0.755747
LeftFoot  3.62964 0.00805184 1.01986
LeftToes  -20.7609 1.83942e-006 5.51297e-008
75
root  -35.2033 34.6304 8.78006 -169.759 79.9674 -179.885
RightUpLeg  -8.13754 -15.2122 -1.20117
RightLeg  6.72507 -1.71664 -0.0899762
RightFoot  3.34047 0.0249211 0.0284314
RightToes  -24.7648 -0.103574 -0.213896
Spine  -2.16164 -0.253279 0.427643
Spine1  -4.4052 -0.478172 1.39794
HEad  -68.6987 -3.48636 5.02851
LeftShoulder1  -1.94126e-019 -3.10601e-018 -2.51263e-017
LeftArm  -14.7714 25.1799 -82.4188
LeftForeArm  29.9769 -20.9084 -3.37745
LeftHand  -0.361194 -0.972593 6.72256
RightShoulder  -4.96962e-017 0 -2.36833e-017
RightArm  -29.0785 -24.908 76.7063
RightForeArm  58.4138 12.5209 1.42437
RightHand  -0.35627 -0.810019 -9.00348
LeftUpLeg  -7.51536 1.78588 1.55987
LeftLeg  6.86476 14.15 0.777918
LeftFoot  3.57682 0.00711161 1.00602
LeftToes  -20.7671 1.83942e-006 5.51297e-008
76
root  -35.1976 34.6285 8.79255 -169.547 79.9937 -179.704
RightUpLeg  -8.14118 -15.0943 -1.14303
RightLeg  6.67252 -1.8146 -0.0935022
RightFoot  3.33821 0.0249625 0.0278393
RightToes  -24.7532 -0.103431 -0.213866
Spine  -2.23307 -0.248957 0.423309
Spine1  -4.54659 -0.473772 1.39588
HEad  -68.4239 -3.44585 5.07968
LeftShoulder1  -1.94126e-019 -3.10601e-018 -2.51263e-017
LeftArm  -13.8385 25.5366 -82.3337
LeftForeArm  29.6841 -21.8981 -3.48602
LeftHand  -0.357019 -1.12823 6.50027
RightShoulder  -4.96962e-017 0 -2.36833e-017
RightArm  -28.4864 -25.2696 76.8908
RightForeArm  58.0681 12.7875 1.39624
RightHand  -0.356522 -0.750723 -8.8893
LeftUpLeg  -7.53814 1.82145 1.61114
LeftLeg  6.86276 14.1439 0.777097
LeftFoot  3.55242 0.00559209 0.999865
LeftToes  -20.8229 1.83942e-006 5.51297e-008
77
root  -35.1879 34.6284 8.79482 -169.526 79.9708 -179.637
RightUpLeg  -8.06654 -15.1066 -1.13893
RightLeg  6.65502 -1.81504 -0.09297
RightFoot  3.34301 0.025029 0.0268893
RightToes  -24.8464 -0.103294 -0.213833
Spine  -2.28905 -0.259138 0.412055
Spine1  -4.6583 -0.494213 1.37836
HEad  -67.8842 -3.50444 5.08701
LeftShoulder1  -1.94126e-019 -3.10601e-018 -2.51263e-017
LeftArm  -12.8395 25.7918 -82.1183
LeftForeArm  29.2842 -22.8786 -3.60339
LeftHand  -0.363788 -0.924747 6.8173
RightShoulder  -4.96962e-017 0 -2.36833e-017
RightArm  -27.9757 -25.5217 77.0323
RightForeArm  57.4993 13.1252 1.35902
RightHand  -0.354314 -0.775944 -8.87945
LeftUpLeg  -7.46565 1.92624 1.63365
LeftLeg  6.82295 14.0152 0.760497
LeftFoot  3.57282 0.00378339 0.99688
LeftToes  -20.9413 1.83942e-006 5.51297e-008
78
root  -35.1787 34.6324 8.79815 -169.615 79.9555 -179.619
RightUpLeg  -7.9037 -15.0482 -1.16103
RightLeg  6.58103 -1.88494 -0.0941519
RightFoot  3.36235 0.0251174 0.0256265
RightToes  -24.7927 -0.103164 -0.213796
Spine  -2.33098 -0.268903 0.401754
Spine1  -4.74238 -0.508984 1.36156
HEad  -66.9881 -3.64302 5.0731
LeftShoulder1  -1.94126e-019 -3.10601e-018 -2.51263e-017
LeftArm  -12.1288 25.8505 -81.8267
LeftForeArm  29.1325 -23.4847 -3.68291
LeftHand  -0.358299 -1.06639 6.58046
RightShoulder  -4.96962e-017 0 -2.36833e-017
RightArm  -27.6557 -25.6145 77.1095
RightForeArm  56.9613 13.4301 1.32422
RightHand  -0.353095 -0.792482 -8.86064
LeftUpLeg  -7.29433 1.96532 1.65048
LeftLeg  6.71166 13.955 0.730397
LeftFoot  3.61413 0.00123529 1.00405
LeftToes  -20.9749 1.83942e-006 5.51297e-008
79
root  -35.1724 34.6385 8.80355 -169.715 79.957 -179.598
RightUpLeg  -7.71481 -14.9663 -1.18074
RightLeg  6.47658 -1.96548 -0.0946308
RightFoot  3.36243 0.0252245 0.024096
RightToes  -24.6305 -0.103041 -0.213754
Spine  -2.35963 -0.261286 0.38565
Spine1  -4.80002 -0.486147 1.33157
HEad  -66.1221 -3.8137 5.09761
LeftShoulder1  -1.94126e-019 -3.10601e-018 -2.51263e-017
LeftArm  -11.6881 25.7002 -81.5354
LeftForeArm  29.1143 -23.6824 -3.71708
LeftHand  -0.350881 -1.07788 6.43614
RightShoulder  -4.96962e-017 0 -2.36833e-017
RightArm  -27.4483 -25.5683 77.1641
RightForeArm  56.5106 13.6787 1.29567
RightHand  -0.351762 -0.812833 -8.8564
LeftUpLeg  -7.08953 1.94023 1.66899
LeftLeg  6.5555 13.9747 0.693624
LeftFoot  3.65179 -0.0017027 1.01593
LeftToes  -20.8266 1.83942e-006 5.51297e-008
